<svg width="184" height="20" viewBox="0 0 184 20" fill="none" xmlns="http://www.w3.org/2000/svg">
<g clip-path="url(#clip0_176_175)">
<path d="M7.66141 20C4.63989 20 2.00287 18.9039 0.238164 16.9154L0 16.6485L1.93113 14.1779L2.2726 14.5768C2.92109 15.3314 4.75753 17.0904 7.74462 17.0904C10.7317 17.0904 11.67 15.6499 11.67 14.3042C11.67 12.4419 9.5868 11.8824 7.1736 11.231C4.14634 10.4161 0.711621 9.49211 0.711621 5.59254C0.711621 2.35007 3.57532 0 7.5208 0C10.3042 0 12.6772 0.946915 14.3788 2.74032L14.6399 3.01578L12.6944 5.38881L12.3587 5.01291C10.8264 3.29699 8.77762 2.93831 7.32568 2.93831C5.3429 2.93831 3.95696 3.97131 3.95696 5.44907C3.95696 6.83788 5.51793 7.36298 8.08608 8.06026C11.1277 8.88666 14.9125 9.91392 14.9125 14.132C14.9125 16.967 13.0072 20 7.65854 20H7.66141ZM1.12482 16.6055C2.72023 18.241 5.02439 19.1392 7.66141 19.1392C10.7518 19.1392 14.0545 17.825 14.0545 14.132C14.0545 10.439 10.9067 9.7188 7.86514 8.8924C5.41464 8.22669 3.099 7.59828 3.099 5.45194C3.099 3.49785 4.87805 2.08034 7.32855 2.08034C9.47202 2.08034 11.3027 2.76901 12.6571 4.08034L13.4892 3.06456C11.9627 1.60115 9.95696 0.860832 7.52367 0.860832C4.02009 0.860832 1.57245 2.80631 1.57245 5.58967C1.57245 8.82927 4.53372 9.6241 7.39742 10.396C9.91966 11.076 12.5308 11.7762 12.5308 14.2984C12.5308 15.9799 11.2769 17.9455 7.74462 17.9455C5.56385 17.9455 3.48924 17.0674 1.97418 15.5179L1.12482 16.6026V16.6055Z" fill="black"/>
<path d="M37.0875 19.6671H33.0617L26.2381 11.5753L24.8178 13.1879V19.67H21.6556V0.304138H24.8178V9.11332L32.3701 0.304138H36.4046L28.3127 9.5007L37.0875 19.6643V19.6671ZM33.4634 18.8063H35.208L27.1736 9.49782L34.5021 1.16497H32.7661L23.9569 11.4404V1.16497H22.5165V18.8034H23.9569V12.8579L26.2525 10.2525L33.4634 18.8034V18.8063Z" fill="black"/>
<path d="M45.6471 19.6671H42.485V0.304138H45.6471V19.6643V19.6671ZM43.3458 18.8063H44.7863V1.16497H43.3458V18.8034V18.8063Z" fill="black"/>
<path d="M69.4462 19.6671H66.5796L56.439 5.79912V19.6671H53.2769V0.304138H56.2812L66.284 13.8766V0.304138H69.4462V19.6643V19.6671ZM67.0157 18.8063H68.5853V1.16497H67.1449V16.4935L55.845 1.16497H54.1348V18.8034H55.5753V3.1621L67.0129 18.8063H67.0157Z" fill="black"/>
<path d="M77.5035 19.2367V0.734558H84.9383C88.6542 0.734558 90.7345 3.28549 90.7345 6.30988C90.7345 9.33427 88.6255 11.8852 84.9383 11.8852H79.8077V19.2367H77.5064H77.5035ZM88.35 6.30988C88.35 4.22954 86.8522 2.78621 84.6599 2.78621H79.8048V9.83069H84.6599C86.8522 9.83069 88.35 8.38736 88.35 6.30701V6.30988Z" fill="black"/>
<path d="M111.067 19.2367V10.7489H100.25V19.2367H97.9484V0.734558H100.25V8.69439H111.067V0.734558H113.369V19.2338H111.067V19.2367Z" fill="black"/>
<path d="M135.059 19.2367L133.423 15.1047H124.215L122.58 19.2367H119.945L127.403 0.734558H130.261L137.696 19.2338H135.062L135.059 19.2367ZM128.818 3.09324L124.907 13.0789H132.757L128.818 3.09324Z" fill="black"/>
<path d="M154.976 19.2367L150.287 11.8852H146.571V19.2367H144.27V0.734558H151.704C155.088 0.734558 157.529 2.89812 157.529 6.30988C157.529 9.72165 155.228 11.4691 152.703 11.6901L157.696 19.2338H154.979L154.976 19.2367ZM155.142 6.30988C155.142 4.20084 153.616 2.78621 151.426 2.78621H146.571V9.85938H151.426C153.618 9.85938 155.142 8.39023 155.142 6.30988Z" fill="black"/>
<path d="M181.131 19.2367V3.67573L174.861 19.2367H173.917L167.621 3.67573V19.2367H165.32V0.734558H168.62L174.39 14.9899L180.132 0.734558H183.432V19.2338H181.131V19.2367Z" fill="black"/>
</g>
<defs>
<clipPath id="clip0_176_175">
<rect width="183.435" height="20" fill="white"/>
</clipPath>
</defs>
</svg>
